# xmcd CD database file
#
# Track frame offsets:
#	150
#	27196
#	70567
#	85287
#	118757
#	133560
#	168326
#
# Disc length: 2693 seconds
#
# Revision: 0
# Processed by: cddbd v1.5.1PL2 Copyright (c) Steve Scherf et al.
# Submitted via: CDex 1.50
#
DISCID=530a8307
DTITLE=Arne Jansen Trio - My Tree
DYEAR=2006
DGENRE=Jazz
TTITLE0=Before
TTITLE1=Nachtgewitter
TTITLE2=Go Straight
TTITLE3=Ciele Argento
TTITLE4=Last Minute
TTITLE5=March
TTITLE6=Release
EXTD=YEAR: 2006
EXTT0=
EXTT1=
EXTT2=
EXTT3=
EXTT4=
EXTT5=
EXTT6=
PLAYORDER=
